<svg width="14" height="14" viewBox="0 0 14 14" fill="none" xmlns="http://www.w3.org/2000/svg">
<path fill-rule="evenodd" clip-rule="evenodd" d="M2.75 6.41667C2.75 4.39162 4.39162 2.75 6.41667 2.75C8.44171 2.75 10.0833 4.39162 10.0833 6.41667C10.0833 7.39497 9.7002 8.28379 9.07579 8.94126C9.05155 8.96132 9.02803 8.98269 9.00534 9.00539C8.98264 9.02808 8.96127 9.0516 8.94121 9.07583C8.28375 9.70022 7.39495 10.0833 6.41667 10.0833C4.39162 10.0833 2.75 8.44171 2.75 6.41667ZM9.65394 11.0682C8.73623 11.7081 7.62027 12.0833 6.41667 12.0833C3.28705 12.0833 0.75 9.54628 0.75 6.41667C0.75 3.28705 3.28705 0.75 6.41667 0.75C9.54628 0.75 12.0833 3.28705 12.0833 6.41667C12.0833 7.6203 11.7081 8.73628 11.0682 9.654L12.957 11.5429C13.3476 11.9334 13.3476 12.5666 12.957 12.9571C12.5665 13.3476 11.9334 13.3476 11.5428 12.9571L9.65394 11.0682Z" fill="url(#paint0_linear_609_350)"/>
<defs>
<linearGradient id="paint0_linear_609_350" x1="6.99997" y1="0.75" x2="6.99997" y2="13.25" gradientUnits="userSpaceOnUse">
<stop stop-color="#61D9EB"/>
<stop offset="1" stop-color="#63ECD2"/>
</linearGradient>
</defs>
</svg>
